<?xml version="1.0" encoding="UTF-8" standalone="no"?>
<svg
   width="560"
   height="215"
   viewBox="0 0 560 215"
   role="img"
   aria-label="PRISM — a themeable, non-affiliated fork of Outline"
   version="1.1"
   id="svg15"
   xmlns="http://www.w3.org/2000/svg"
   xmlns:svg="http://www.w3.org/2000/svg">
  <defs
     id="defs7">
    <linearGradient
       id="spectrum"
       gradientUnits="userSpaceOnUse"
       x1="18"
       y1="0"
       x2="521"
       y2="0">
      <stop
         offset="0%"
         stop-color="#ff2d55"
         id="stop1" />
      <stop
         offset="17%"
         stop-color="#ff9500"
         id="stop2" />
      <stop
         offset="34%"
         stop-color="#ffcc00"
         id="stop3" />
      <stop
         offset="51%"
         stop-color="#34c759"
         id="stop4" />
      <stop
         offset="68%"
         stop-color="#32ade6"
         id="stop5" />
      <stop
         offset="85%"
         stop-color="#5856d6"
         id="stop6" />
      <stop
         offset="100%"
         stop-color="#af52de"
         id="stop7" />
    </linearGradient>
  </defs>
  <g
     id="text12"
     style="font-weight:bold;font-size:22px;font-family:'DejaVu Sans Mono';fill:url(#spectrum)"
     aria-label="     ██████╗ ██████╗ ██╗███████╗███╗   ███╗     ██╔══██╗██╔══██╗██║██╔════╝████╗ ████║     ██████╔╝██████╔╝██║███████╗██╔████╔██║     ██╔═══╝ ██╔══██╗██║╚════██║██║╚██╔╝██║     ██║     ██║  ██║██║███████║██║ ╚═╝ ██║     ╚═╝     ╚═╝  ╚═╝╚═╝╚══════╝╚═╝     ╚═╝  ">
    <path
       d="M 17.785156,39.5 V 13.364258 H 31.459961 V 39.5 Z m 13.245117,0 V 13.364258 H 44.705078 V 39.5 Z m 13.245118,0 V 13.364258 H 57.950195 V 39.5 Z m 13.245117,0 V 13.364258 H 71.195312 V 39.5 Z m 13.245117,0 V 13.364258 H 84.44043 V 39.5 Z m 13.245117,0 V 13.364258 H 97.685547 V 39.5 Z m 20.936528,0 V 25.513672 h -7.691411 v -1.847656 h 9.410161 V 39.5 Z m -3.4375,0 V 29.208984 h -4.253911 v -1.847656 h 5.972661 V 39.5 Z m 22.23632,0 V 13.364258 H 137.4209 V 39.5 Z m 13.24512,0 V 13.364258 h 13.67481 V 39.5 Z m 13.24512,0 V 13.364258 h 13.6748 V 39.5 Z m 13.24512,0 V 13.364258 h 13.6748 V 39.5 Z m 13.24511,0 V 13.364258 h 13.67481 V 39.5 Z m 13.24512,0 V 13.364258 h 13.6748 V 39.5 Z m 20.93652,0 V 25.513672 h -7.6914 v -1.847656 h 9.41015 V 39.5 Z m -3.4375,0 V 29.208984 h -4.2539 v -1.847656 h 5.97265 V 39.5 Z m 22.23633,0 V 13.364258 h 13.67481 V 39.5 Z m 13.24512,0 V 13.364258 h 13.6748 V 39.5 Z m 20.93652,0 V 25.513672 h -7.6914 v -1.847656 h 9.41015 V 39.5 Z m -3.4375,0 V 29.208984 h -4.2539 v -1.847656 h 5.97265 V 39.5 Z m 8.99121,0 V 13.364258 h 13.67481 V 39.5 Z m 13.24512,0 V 13.364258 h 13.6748 V 39.5 Z m 13.24512,0 V 13.364258 h 13.6748 V 39.5 Z m 13.24511,0 V 13.364258 h 13.67481 V 39.5 Z m 13.24512,0 V 13.364258 h 13.67481 V 39.5 Z m 13.24512,0 V 13.364258 h 13.6748 V 39.5 Z m 13.24512,0 V 13.364258 h 13.6748 V 39.5 Z m 20.93652,0 V 25.513672 h -7.69141 v -1.847656 h 9.41016 V 39.5 Z m -3.4375,0 V 29.208984 h -4.25391 v -1.847656 h 5.97266 V 39.5 Z m 8.99121,0 V 13.364258 h 13.6748 V 39.5 Z m 13.24512,0 V 13.364258 h 13.6748 V 39.5 Z m 13.24511,0 V 13.364258 h 13.67481 V 39.5 Z m 20.93653,0 V 25.513672 h -7.69141 v -1.847656 h 9.41016 V 39.5 Z m -3.4375,0 V 29.208984 h -4.25391 v -1.847656 h 5.97266 V 39.5 Z m 48.72656,0 V 13.364258 h 13.67481 V 39.5 Z m 13.24512,0 V 13.364258 h 13.6748 V 39.5 Z m 13.24511,0 V 13.364258 h 13.67481 V 39.5 Z m 20.93653,0 V 25.513672 h -7.69141 v -1.847656 h 9.41016 V 39.5 Z m -3.4375,0 V 29.208984 h -4.25391 v -1.847656 h 5.97266 V 39.5 Z"
       id="path15" />
    <path
       d="M 17.785156,65.5 V 39.364258 H 31.459961 V 65.5 Z m 13.245117,0 V 39.364258 H 44.705078 V 65.5 Z m 17.499024,0 V 49.666016 h 9.420898 v 1.847656 H 50.248047 V 65.5 Z m 3.4375,0 V 53.361328 h 5.983398 v 1.847656 H 53.685547 V 65.5 Z m 5.553711,-13.986328 v -1.847656 h 13.674804 v 1.847656 z m 0,3.695312 v -1.847656 h 13.674804 v 1.847656 z M 70.765625,51.513672 V 49.666016 H 84.44043 v 1.847656 z m 0,3.695312 V 53.361328 H 84.44043 v 1.847656 z M 84.010742,65.5 V 39.364258 H 97.685547 V 65.5 Z m 13.245117,0 V 39.364258 H 110.93066 V 65.5 Z m 20.936521,0 V 51.513672 h -7.6914 v -1.847656 h 9.41015 V 65.5 Z m -3.4375,0 V 55.208984 h -4.2539 v -1.847656 h 5.97265 V 65.5 Z m 8.99121,0 V 39.364258 H 137.4209 V 65.5 Z m 13.24512,0 V 39.364258 h 13.67481 V 65.5 Z m 17.49902,0 V 49.666016 h 9.4209 v 1.847656 h -7.70215 V 65.5 Z m 3.4375,0 V 53.361328 h 5.9834 v 1.847656 h -4.26465 V 65.5 Z m 5.55372,-13.986328 v -1.847656 h 13.6748 v 1.847656 z m 0,3.695312 v -1.847656 h 13.6748 v 1.847656 z m 13.24511,-3.695312 v -1.847656 h 13.67481 v 1.847656 z m 0,3.695312 v -1.847656 h 13.67481 v 1.847656 z M 189.97168,65.5 V 39.364258 h 13.6748 V 65.5 Z m 13.24512,0 V 39.364258 h 13.6748 V 65.5 Z m 20.93652,0 V 51.513672 h -7.69141 v -1.847656 h 9.41016 V 65.5 Z m -3.4375,0 V 55.208984 h -4.25391 v -1.847656 h 5.97266 V 65.5 Z m 8.99121,0 V 39.364258 h 13.67481 V 65.5 Z m 13.24512,0 V 39.364258 h 13.6748 V 65.5 Z m 17.49902,0 V 39.364258 h 1.71875 V 65.5 Z m 3.4375,0 V 39.364258 h 1.71875 V 65.5 Z m 5.55371,0 V 39.364258 h 13.67481 V 65.5 Z m 13.24512,0 V 39.364258 h 13.6748 V 65.5 Z m 17.49902,0 V 49.666016 h 9.4209 v 1.847656 h -7.70215 V 65.5 Z m 3.4375,0 V 53.361328 h 5.9834 v 1.847656 h -4.26465 V 65.5 Z m 5.55371,-13.986328 v -1.847656 h 13.67481 v 1.847656 z m 0,3.695312 v -1.847656 h 13.67481 v 1.847656 z m 13.24512,-3.695312 v -1.847656 h 13.67481 v 1.847656 z m 0,3.695312 v -1.847656 h 13.67481 v 1.847656 z m 13.24512,-3.695312 v -1.847656 h 13.6748 v 1.847656 z m 0,3.695312 v -1.847656 h 13.6748 v 1.847656 z m 13.24512,-3.695312 v -1.847656 h 13.6748 v 1.847656 z m 0,3.695312 v -1.847656 h 13.6748 v 1.847656 z m 13.24511,-3.695312 v -1.847656 h 4.25391 V 39.364258 h 1.71875 v 12.149414 z m 0,3.695312 v -1.847656 h 7.69141 v -13.99707 h 1.71875 V 55.208984 Z M 375.40332,65.5 V 39.364258 h 13.6748 V 65.5 Z m 13.24512,0 V 39.364258 h 13.6748 V 65.5 Z m 13.24511,0 V 39.364258 h 13.67481 V 65.5 Z m 13.24512,0 V 39.364258 h 13.67481 V 65.5 Z m 20.93653,0 V 51.513672 h -7.69141 v -1.847656 h 9.41016 V 65.5 Z m -3.4375,0 V 55.208984 h -4.25391 v -1.847656 h 5.97266 V 65.5 Z m 22.23632,0 V 39.364258 h 13.67481 V 65.5 Z m 13.24512,0 V 39.364258 h 13.67481 V 65.5 Z m 13.24512,0 V 39.364258 h 13.6748 V 65.5 Z m 13.24511,0 V 39.364258 h 13.67481 V 65.5 Z m 17.49903,0 V 39.364258 h 1.71875 V 65.5 Z m 3.4375,0 V 39.364258 h 1.71875 V 65.5 Z"
       id="path16" />
    <path
       d="M 17.785156,91.5 V 65.364258 H 31.459961 V 91.5 Z m 13.245117,0 V 65.364258 H 44.705078 V 91.5 Z m 13.245118,0 V 65.364258 H 57.950195 V 91.5 Z m 13.245117,0 V 65.364258 H 71.195312 V 91.5 Z m 13.245117,0 V 65.364258 H 84.44043 V 91.5 Z m 13.245117,0 V 65.364258 H 97.685547 V 91.5 Z m 17.499028,0 V 75.666016 h 9.42089 v 1.847656 h -7.70214 V 91.5 Z m 3.4375,0 V 79.361328 h 5.98339 v 1.847656 h -4.26464 V 91.5 Z m 5.55371,-13.986328 v -1.847656 h 4.2539 V 65.364258 h 1.71875 v 12.149414 z m 0,3.695312 v -1.847656 h 7.6914 v -13.99707 h 1.71875 V 81.208984 Z M 123.74609,91.5 V 65.364258 H 137.4209 V 91.5 Z m 13.24512,0 V 65.364258 h 13.67481 V 91.5 Z m 13.24512,0 V 65.364258 h 13.6748 V 91.5 Z m 13.24512,0 V 65.364258 h 13.6748 V 91.5 Z m 13.24511,0 V 65.364258 h 13.67481 V 91.5 Z m 13.24512,0 V 65.364258 h 13.6748 V 91.5 Z m 17.49902,0 V 75.666016 h 9.4209 v 1.847656 h -7.70215 V 91.5 Z m 3.4375,0 V 79.361328 h 5.9834 v 1.847656 h -4.26465 V 91.5 Z m 5.55371,-13.986328 v -1.847656 h 4.25391 V 65.364258 h 1.71875 v 12.149414 z m 0,3.695312 v -1.847656 h 7.69141 v -13.99707 h 1.71875 V 81.208984 Z M 229.70703,91.5 V 65.364258 h 13.67481 V 91.5 Z m 13.24512,0 V 65.364258 h 13.6748 V 91.5 Z m 17.49902,0 V 65.364258 h 1.71875 V 91.5 Z m 3.4375,0 V 65.364258 h 1.71875 V 91.5 Z m 5.55371,0 V 65.364258 h 13.67481 V 91.5 Z m 13.24512,0 V 65.364258 h 13.6748 V 91.5 Z m 13.24512,0 V 65.364258 h 13.6748 V 91.5 Z m 13.24511,0 V 65.364258 h 13.67481 V 91.5 Z m 13.24512,0 V 65.364258 h 13.67481 V 91.5 Z m 13.24512,0 V 65.364258 h 13.6748 V 91.5 Z m 13.24512,0 V 65.364258 h 13.6748 V 91.5 Z m 20.93652,0 V 77.513672 h -7.69141 v -1.847656 h 9.41016 V 91.5 Z m -3.4375,0 V 81.208984 h -4.25391 v -1.847656 h 5.97266 V 91.5 Z m 8.99121,0 V 65.364258 h 13.6748 V 91.5 Z m 13.24512,0 V 65.364258 h 13.6748 V 91.5 Z m 17.49902,0 V 75.666016 h 9.4209 v 1.847656 h -7.70215 V 91.5 Z m 3.4375,0 V 79.361328 h 5.9834 v 1.847656 h -4.26465 V 91.5 Z m 5.55371,0 V 65.364258 h 13.67481 V 91.5 Z m 13.24512,0 V 65.364258 h 13.6748 V 91.5 Z m 13.24512,0 V 65.364258 h 13.6748 V 91.5 Z m 13.24511,0 V 65.364258 h 13.67481 V 91.5 Z m 17.49903,0 V 75.666016 h 9.4209 v 1.847656 H 474.0918 V 91.5 Z m 3.4375,0 V 79.361328 h 5.9834 v 1.847656 H 477.5293 V 91.5 Z m 5.55371,0 V 65.364258 h 13.6748 V 91.5 Z m 13.24511,0 V 65.364258 h 13.67481 V 91.5 Z m 17.49903,0 V 65.364258 h 1.71875 V 91.5 Z m 3.4375,0 V 65.364258 h 1.71875 V 91.5 Z"
       id="path17" />
    <path
       d="M 17.785156,117.5 V 91.364258 H 31.459961 V 117.5 Z m 13.245117,0 V 91.364258 H 44.705078 V 117.5 Z m 17.499024,0 v -15.83398 h 9.420898 v 1.84765 H 50.248047 V 117.5 Z m 3.4375,0 v -12.13867 h 5.983398 v 1.84765 H 53.685547 V 117.5 Z m 5.553711,-13.98633 v -1.84765 h 13.674804 v 1.84765 z m 0,3.69531 v -1.84765 h 13.674804 v 1.84765 z m 13.245117,-3.69531 v -1.84765 H 84.44043 v 1.84765 z m 0,3.69531 v -1.84765 H 84.44043 v 1.84765 z m 13.245117,-3.69531 v -1.84765 h 13.674805 v 1.84765 z m 0,3.69531 v -1.84765 h 13.674805 v 1.84765 z m 13.245117,-3.69531 v -1.84765 h 4.253911 V 91.364258 h 1.71875 v 12.149412 z m 0,3.69531 v -1.84765 h 7.691411 V 91.364258 h 1.71875 V 107.20898 Z M 123.74609,117.5 V 91.364258 H 137.4209 V 117.5 Z m 13.24512,0 V 91.364258 h 13.67481 V 117.5 Z m 17.49902,0 v -15.83398 h 9.4209 v 1.84765 h -7.70215 V 117.5 Z m 3.4375,0 v -12.13867 h 5.9834 v 1.84765 h -4.26465 V 117.5 Z m 5.55372,-13.98633 v -1.84765 h 13.6748 v 1.84765 z m 0,3.69531 v -1.84765 h 13.6748 v 1.84765 z m 13.24511,-3.69531 v -1.84765 h 13.67481 v 1.84765 z m 0,3.69531 v -1.84765 h 13.67481 v 1.84765 z M 189.97168,117.5 V 91.364258 h 13.6748 V 117.5 Z m 13.24512,0 V 91.364258 h 13.6748 V 117.5 Z m 20.93652,0 v -13.98633 h -7.69141 v -1.84765 h 9.41016 V 117.5 Z m -3.4375,0 v -10.29102 h -4.25391 v -1.84765 h 5.97266 V 117.5 Z m 8.99121,0 V 91.364258 h 13.67481 V 117.5 Z m 13.24512,0 V 91.364258 h 13.6748 V 117.5 Z m 17.49902,0 V 91.364258 h 1.71875 V 117.5 Z m 3.4375,0 V 91.364258 h 1.71875 V 117.5 Z m 13.24512,-13.98633 V 91.364258 h 1.71875 v 10.301762 h 4.26465 v 1.84765 z m -3.4375,3.69531 V 91.364258 h 1.71875 v 13.997072 h 7.70215 v 1.84765 z m 8.99121,-3.69531 v -1.84765 h 13.6748 v 1.84765 z m 0,3.69531 v -1.84765 h 13.6748 v 1.84765 z m 13.24512,-3.69531 v -1.84765 h 13.6748 v 1.84765 z m 0,3.69531 v -1.84765 h 13.6748 v 1.84765 z m 13.24511,-3.69531 v -1.84765 h 13.67481 v 1.84765 z m 0,3.69531 v -1.84765 h 13.67481 v 1.84765 z m 13.24512,-3.69531 v -1.84765 h 13.67481 v 1.84765 z m 0,3.69531 v -1.84765 h 13.67481 v 1.84765 z M 335.66797,117.5 V 91.364258 h 13.6748 V 117.5 Z m 13.24512,0 V 91.364258 h 13.6748 V 117.5 Z m 17.49902,0 V 91.364258 h 1.71875 V 117.5 Z m 3.4375,0 V 91.364258 h 1.71875 V 117.5 Z m 5.55371,0 V 91.364258 h 13.6748 V 117.5 Z m 13.24512,0 V 91.364258 h 13.6748 V 117.5 Z m 17.49902,0 V 91.364258 h 1.71875 V 117.5 Z m 3.4375,0 V 91.364258 h 1.71875 V 117.5 Z m 13.24512,-13.98633 V 91.364258 h 1.71875 v 10.301762 h 4.26465 v 1.84765 z m -3.4375,3.69531 V 91.364258 h 1.71875 v 13.997072 h 7.70215 v 1.84765 z M 428.38379,117.5 V 91.364258 h 13.6748 V 117.5 Z m 13.24512,0 V 91.364258 h 13.6748 V 117.5 Z m 17.49902,0 v -15.83398 h 9.4209 v 1.84765 h -7.70215 V 117.5 Z m 3.4375,0 v -12.13867 h 5.9834 v 1.84765 h -4.26465 V 117.5 Z m 5.55371,-13.98633 v -1.84765 h 4.25391 V 91.364258 h 1.71875 v 12.149412 z m 0,3.69531 v -1.84765 h 7.69141 V 91.364258 h 1.71875 V 107.20898 Z M 481.36426,117.5 V 91.364258 h 13.6748 V 117.5 Z m 13.24511,0 V 91.364258 h 13.67481 V 117.5 Z m 17.49903,0 V 91.364258 h 1.71875 V 117.5 Z m 3.4375,0 V 91.364258 h 1.71875 V 117.5 Z"
       id="path18" />
    <path
       d="M 17.785156,143.5 V 117.36426 H 31.459961 V 143.5 Z m 13.245117,0 V 117.36426 H 44.705078 V 143.5 Z m 17.499024,0 v -26.13574 h 1.71875 V 143.5 Z m 3.4375,0 v -26.13574 h 1.71875 V 143.5 Z m 71.779293,0 V 117.36426 H 137.4209 V 143.5 Z m 13.24512,0 v -26.13574 h 13.67481 V 143.5 Z m 17.49902,0 v -26.13574 h 1.71875 V 143.5 Z m 3.4375,0 v -26.13574 h 1.71875 V 143.5 Z m 32.04395,0 v -26.13574 h 13.6748 V 143.5 Z m 13.24512,0 v -26.13574 h 13.6748 V 143.5 Z m 17.49902,0 v -26.13574 h 1.71875 V 143.5 Z m 3.4375,0 v -26.13574 h 1.71875 V 143.5 Z m 5.55371,0 v -26.13574 h 13.67481 V 143.5 Z m 13.24512,0 v -26.13574 h 13.6748 V 143.5 Z m 17.49902,0 v -26.13574 h 1.71875 V 143.5 Z m 3.4375,0 v -26.13574 h 1.71875 V 143.5 Z m 5.55371,0 v -26.13574 h 13.67481 V 143.5 Z m 13.24512,0 v -26.13574 h 13.6748 V 143.5 Z m 13.24512,0 v -26.13574 h 13.6748 V 143.5 Z m 13.24511,0 v -26.13574 h 13.67481 V 143.5 Z m 13.24512,0 v -26.13574 h 13.67481 V 143.5 Z m 13.24512,0 v -26.13574 h 13.6748 V 143.5 Z m 13.24512,0 v -26.13574 h 13.6748 V 143.5 Z m 17.49902,0 v -26.13574 h 1.71875 V 143.5 Z m 3.4375,0 v -26.13574 h 1.71875 V 143.5 Z m 5.55371,0 v -26.13574 h 13.6748 V 143.5 Z m 13.24512,0 v -26.13574 h 13.6748 V 143.5 Z m 17.49902,0 v -26.13574 h 1.71875 V 143.5 Z m 3.4375,0 v -26.13574 h 1.71875 V 143.5 Z m 26.49024,-13.98633 v -12.14941 h 1.71875 v 10.30176 h 4.26464 v 1.84765 z m -3.4375,3.69531 v -15.84472 h 1.71875 v 13.99707 h 7.70214 v 1.84765 z m 8.99121,-3.69531 v -1.84765 h 13.6748 v 1.84765 z m 0,3.69531 v -1.84765 h 13.6748 v 1.84765 z m 13.24511,-3.69531 v -1.84765 h 4.25391 v -10.30176 h 1.71875 v 12.14941 z m 0,3.69531 v -1.84765 h 7.69141 v -13.99707 h 1.71875 v 15.84472 z M 481.36426,143.5 v -26.13574 h 13.6748 V 143.5 Z m 13.24511,0 v -26.13574 h 13.67481 V 143.5 Z m 17.49903,0 v -26.13574 h 1.71875 V 143.5 Z m 3.4375,0 v -26.13574 h 1.71875 V 143.5 Z"
       id="path19" />
    <path
       d="m 25.476562,155.51367 v -12.14941 h 1.71875 v 10.30176 h 4.264649 v 1.84765 z m -3.4375,3.69531 v -15.84472 h 1.71875 v 13.99707 h 7.702149 v 1.84765 z m 8.991211,-3.69531 v -1.84765 h 13.674805 v 1.84765 z m 0,3.69531 v -1.84765 h 13.674805 v 1.84765 z m 13.245118,-3.69531 v -1.84765 h 4.253906 v -10.30176 h 1.71875 v 12.14941 z m 0,3.69531 v -1.84765 h 7.691406 v -13.99707 h 1.71875 v 15.84472 z m 87.162109,-3.69531 v -12.14941 h 1.71875 v 10.30176 h 4.26465 v 1.84765 z M 128,159.20898 v -15.84472 h 1.71875 v 13.99707 h 7.70215 v 1.84765 z m 8.99121,-3.69531 v -1.84765 h 13.67481 v 1.84765 z m 0,3.69531 v -1.84765 h 13.67481 v 1.84765 z m 13.24512,-3.69531 v -1.84765 h 4.2539 v -10.30176 h 1.71875 v 12.14941 z m 0,3.69531 v -1.84765 h 7.6914 v -13.99707 h 1.71875 v 15.84472 z m 47.42676,-3.69531 v -12.14941 h 1.71875 v 10.30176 h 4.26464 v 1.84765 z m -3.4375,3.69531 v -15.84472 h 1.71875 v 13.99707 h 7.70214 v 1.84765 z m 8.99121,-3.69531 v -1.84765 h 13.6748 v 1.84765 z m 0,3.69531 v -1.84765 h 13.6748 v 1.84765 z m 13.24511,-3.69531 v -1.84765 h 4.25391 v -10.30176 h 1.71875 v 12.14941 z m 0,3.69531 v -1.84765 h 7.69141 v -13.99707 h 1.71875 v 15.84472 z m 20.93653,-3.69531 v -12.14941 h 1.71875 v 10.30176 h 4.26465 v 1.84765 z m -3.4375,3.69531 v -15.84472 h 1.71875 v 13.99707 h 7.70215 v 1.84765 z m 8.99121,-3.69531 v -1.84765 h 13.6748 v 1.84765 z m 0,3.69531 v -1.84765 h 13.6748 v 1.84765 z m 13.24512,-3.69531 v -1.84765 h 4.2539 v -10.30176 h 1.71875 v 12.14941 z m 0,3.69531 v -1.84765 h 7.6914 v -13.99707 h 1.71875 v 15.84472 z m 20.93652,-3.69531 v -12.14941 h 1.71875 v 10.30176 h 4.26465 v 1.84765 z m -3.4375,3.69531 v -15.84472 h 1.71875 v 13.99707 h 7.70215 v 1.84765 z m 8.99121,-3.69531 v -1.84765 h 13.6748 v 1.84765 z m 0,3.69531 v -1.84765 h 13.6748 v 1.84765 z m 13.24512,-3.69531 v -1.84765 h 13.6748 v 1.84765 z m 0,3.69531 v -1.84765 h 13.6748 v 1.84765 z m 13.24511,-3.69531 v -1.84765 h 13.67481 v 1.84765 z m 0,3.69531 v -1.84765 h 13.67481 v 1.84765 z m 13.24512,-3.69531 v -1.84765 h 13.67481 v 1.84765 z m 0,3.69531 v -1.84765 h 13.67481 v 1.84765 z m 13.24512,-3.69531 v -1.84765 h 13.6748 v 1.84765 z m 0,3.69531 v -1.84765 h 13.6748 v 1.84765 z m 13.24512,-3.69531 v -1.84765 h 13.6748 v 1.84765 z m 0,3.69531 v -1.84765 h 13.6748 v 1.84765 z m 13.24511,-3.69531 v -1.84765 h 4.25391 v -10.30176 h 1.71875 v 12.14941 z m 0,3.69531 v -1.84765 h 7.69141 v -13.99707 h 1.71875 v 15.84472 z m 20.93653,-3.69531 v -12.14941 h 1.71875 v 10.30176 h 4.26464 v 1.84765 z m -3.4375,3.69531 v -15.84472 h 1.71875 v 13.99707 h 7.70214 v 1.84765 z m 8.99121,-3.69531 v -1.84765 h 13.6748 v 1.84765 z m 0,3.69531 v -1.84765 h 13.6748 v 1.84765 z m 13.24511,-3.69531 v -1.84765 h 4.25391 v -10.30176 h 1.71875 v 12.14941 z m 0,3.69531 v -1.84765 h 7.69141 v -13.99707 h 1.71875 v 15.84472 z m 87.16211,-3.69531 v -12.14941 h 1.71875 v 10.30176 h 4.26465 v 1.84765 z m -3.4375,3.69531 v -15.84472 h 1.71875 v 13.99707 h 7.70215 v 1.84765 z m 8.99121,-3.69531 v -1.84765 h 13.67481 v 1.84765 z m 0,3.69531 v -1.84765 h 13.67481 v 1.84765 z m 13.24512,-3.69531 v -1.84765 h 4.25391 v -10.30176 h 1.71875 v 12.14941 z m 0,3.69531 v -1.84765 h 7.69141 v -13.99707 h 1.71875 v 15.84472 z"
       id="path20" />
  </g>
  <g
     id="text15"
     style="font-size:16px;font-family:'DejaVu Sans Mono'"
     aria-label="     // a themeable, non-affiliated fork of Outline █  ">
    <path
       style="fill:#6a9955"
       d="m 24.945312,186.33594 h 1.484375 l -6.140625,13.14843 h -1.492187 z m 9.632813,0 H 36.0625 l -6.140625,13.14843 h -1.492188 z"
       id="path21" />
    <path
       style="fill:#8b949e"
       d="M 52.382812,193.60156 H 51.90625 q -1.257813,0 -1.898438,0.44531 -0.632812,0.4375 -0.632812,1.3125 0,0.78907 0.476562,1.22657 0.476563,0.4375 1.320313,0.4375 1.1875,0 1.867187,-0.82032 0.679688,-0.82812 0.6875,-2.28125 v -0.32031 z m 2.789063,-0.59375 V 198 h -1.445313 v -1.29688 q -0.460937,0.78125 -1.164062,1.15625 -0.695313,0.36719 -1.695313,0.36719 -1.335937,0 -2.132812,-0.75 -0.796875,-0.75781 -0.796875,-2.02344 0,-1.46093 0.976562,-2.21875 0.984375,-0.75781 2.882813,-0.75781 h 1.929687 V 192.25 q -0.0078,-1.04688 -0.53125,-1.51563 -0.523437,-0.47656 -1.671875,-0.47656 -0.734375,0 -1.484375,0.21094 -0.75,0.21094 -1.460937,0.61719 v -1.4375 q 0.796875,-0.30469 1.523437,-0.45313 0.734375,-0.15625 1.421875,-0.15625 1.085938,0 1.851563,0.32031 0.773437,0.32032 1.25,0.96094 0.296875,0.39063 0.421875,0.96875 0.125,0.57031 0.125,1.71875 z m 15.789062,-6.24219 V 189.25 h 3.265625 v 1.11719 h -3.265625 v 4.75 q 0,0.96875 0.367188,1.35156 0.367187,0.38281 1.28125,0.38281 h 1.617187 V 198 H 72.46875 q -1.617188,0 -2.28125,-0.64844 -0.664063,-0.64844 -0.664063,-2.23437 v -4.75 H 67.1875 V 189.25 h 2.335937 v -2.48438 z m 13.046875,5.8125 V 198 H 82.5625 v -5.42188 q 0,-1.17968 -0.414063,-1.73437 -0.414062,-0.55469 -1.296875,-0.55469 -1.007812,0 -1.554687,0.71875 -0.539063,0.71094 -0.539063,2.04688 V 198 h -1.4375 v -12.15625 h 1.4375 v 4.71875 q 0.382813,-0.75 1.039063,-1.13281 0.65625,-0.39063 1.554687,-0.39063 1.335938,0 1.992188,0.88281 0.664062,0.875 0.664062,2.65625 z m 10.109375,0.6875 v 0.70313 h -6.226562 v 0.0469 q 0,1.42969 0.742187,2.21094 0.75,0.78125 2.109375,0.78125 0.6875,0 1.4375,-0.21875 0.75,-0.21875 1.601563,-0.66406 v 1.42969 q -0.820313,0.33593 -1.585938,0.5 -0.757812,0.17187 -1.46875,0.17187 -2.039062,0 -3.1875,-1.21875 -1.148437,-1.22656 -1.148437,-3.375 0,-2.09375 1.125,-3.34375 1.125,-1.25 3,-1.25 1.671875,0 2.632812,1.13281 0.96875,1.13282 0.96875,3.09375 z m -1.4375,-0.42187 q -0.03125,-1.26563 -0.601562,-1.92188 -0.5625,-0.66406 -1.625,-0.66406 -1.039063,0 -1.710938,0.6875 -0.671875,0.6875 -0.796875,1.90625 z m 7.664063,-2.70313 q 0.26563,-0.5625 0.67188,-0.82812 0.41406,-0.27344 0.99218,-0.27344 1.05469,0 1.48438,0.82031 0.4375,0.8125 0.4375,3.07032 V 198 h -1.3125 v -5.00781 q 0,-1.85157 -0.21094,-2.29688 -0.20312,-0.45312 -0.75,-0.45312 -0.625,0 -0.85937,0.48437 -0.22657,0.47656 -0.22657,2.26563 V 198 h -1.312498 v -5.00781 q 0,-1.875 -0.226562,-2.3125 -0.21875,-0.4375 -0.796875,-0.4375 -0.570313,0 -0.796875,0.48437 -0.21875,0.47656 -0.21875,2.26563 V 198 h -1.304688 v -8.75 H 97.21875 V 190 q 0.257812,-0.46875 0.640625,-0.71094 0.390625,-0.25 0.882812,-0.25 0.59375,0 0.984375,0.27344 0.398438,0.27344 0.617188,0.82812 z m 13.03906,3.125 v 0.70313 h -6.22656 v 0.0469 q 0,1.42969 0.74219,2.21094 0.75,0.78125 2.10937,0.78125 0.6875,0 1.4375,-0.21875 0.75,-0.21875 1.60157,-0.66406 v 1.42969 q -0.82032,0.33593 -1.58594,0.5 -0.75781,0.17187 -1.46875,0.17187 -2.03906,0 -3.1875,-1.21875 -1.14844,-1.22656 -1.14844,-3.375 0,-2.09375 1.125,-3.34375 1.125,-1.25 3,-1.25 1.67188,0 2.63281,1.13281 0.96875,1.13282 0.96875,3.09375 z m -1.4375,-0.42187 q -0.0312,-1.26563 -0.60156,-1.92188 -0.5625,-0.66406 -1.625,-0.66406 -1.03906,0 -1.71094,0.6875 -0.67187,0.6875 -0.79687,1.90625 z m 7.86719,0.75781 h -0.47656 q -1.25781,0 -1.89844,0.44531 -0.63281,0.4375 -0.63281,1.3125 0,0.78907 0.47656,1.22657 0.47656,0.4375 1.32031,0.4375 1.1875,0 1.86719,-0.82032 0.67969,-0.82812 0.6875,-2.28125 v -0.32031 z m 2.78906,-0.59375 V 198 h -1.44531 v -1.29688 q -0.46094,0.78125 -1.16406,1.15625 -0.69531,0.36719 -1.69531,0.36719 -1.33594,0 -2.13282,-0.75 -0.79687,-0.75781 -0.79687,-2.02344 0,-1.46093 0.97656,-2.21875 0.98438,-0.75781 2.88281,-0.75781 h 1.92969 V 192.25 q -0.008,-1.04688 -0.53125,-1.51563 -0.52344,-0.47656 -1.67187,-0.47656 -0.73438,0 -1.48438,0.21094 -0.75,0.21094 -1.46094,0.61719 v -1.4375 q 0.79688,-0.30469 1.52344,-0.45313 0.73438,-0.15625 1.42188,-0.15625 1.08593,0 1.85156,0.32031 0.77344,0.32032 1.25,0.96094 0.29687,0.39063 0.42187,0.96875 0.125,0.57031 0.125,1.71875 z m 8.53125,0.625 q 0,-1.67187 -0.53125,-2.52344 -0.53125,-0.85156 -1.57031,-0.85156 -1.04687,0 -1.58594,0.85938 -0.53906,0.85156 -0.53906,2.51562 0,1.65625 0.53906,2.51563 0.53907,0.85937 1.58594,0.85937 1.03906,0 1.57031,-0.85156 0.53125,-0.85156 0.53125,-2.52344 z m -4.22656,-3.26562 q 0.34375,-0.64063 0.94531,-0.98438 0.60938,-0.34375 1.40625,-0.34375 1.57813,0 2.48438,1.21875 0.90625,1.21094 0.90625,3.34375 0,2.16406 -0.91407,3.39844 -0.90625,1.22656 -2.49218,1.22656 -0.78125,0 -1.38281,-0.33594 -0.59375,-0.34375 -0.95313,-0.99218 V 198 h -1.4375 v -12.15625 h 1.4375 z m 11.67969,4.46093 q 0,0.96875 0.35156,1.46094 0.35937,0.49219 1.05469,0.49219 h 1.67968 V 198 h -1.82031 q -1.28906,0 -2,-0.82813 -0.70312,-0.82812 -0.70312,-2.34375 v -7.94531 h -2.30469 v -1.125 h 3.74219 z m 13.32812,-1.5625 v 0.70313 h -6.22656 v 0.0469 q 0,1.42969 0.74219,2.21094 0.75,0.78125 2.10937,0.78125 0.6875,0 1.4375,-0.21875 0.75,-0.21875 1.60156,-0.66406 v 1.42969 q -0.82031,0.33593 -1.58593,0.5 -0.75782,0.17187 -1.46875,0.17187 -2.03907,0 -3.1875,-1.21875 -1.14844,-1.22656 -1.14844,-3.375 0,-2.09375 1.125,-3.34375 1.125,-1.25 3,-1.25 1.67187,0 2.63281,1.13281 0.96875,1.13282 0.96875,3.09375 z m -1.4375,-0.42187 q -0.0312,-1.26563 -0.60156,-1.92188 -0.5625,-0.66406 -1.625,-0.66406 -1.03906,0 -1.71094,0.6875 -0.67187,0.6875 -0.79687,1.90625 z m 6.30469,2.78906 H 158.75 V 197.25 l -1.53906,2.99219 h -1.20313 l 0.77344,-2.99219 z m 23.55469,-3.05469 V 198 h -1.44532 v -5.42188 q 0,-1.17968 -0.41406,-1.73437 -0.41406,-0.55469 -1.29687,-0.55469 -1.00782,0 -1.55469,0.71875 -0.53906,0.71094 -0.53906,2.04688 V 198 h -1.4375 v -8.75 h 1.4375 v 1.3125 q 0.38281,-0.75 1.03906,-1.13281 0.65625,-0.39063 1.55469,-0.39063 1.33593,0 1.99218,0.88281 0.66407,0.875 0.66407,2.65625 z m 6.23437,-2.32031 q -1.09375,0 -1.65625,0.85156 -0.5625,0.85157 -0.5625,2.52344 0,1.66406 0.5625,2.52344 0.5625,0.85156 1.65625,0.85156 1.10156,0 1.66406,-0.85156 0.5625,-0.85938 0.5625,-2.52344 0,-1.67187 -0.5625,-2.52344 -0.5625,-0.85156 -1.66406,-0.85156 z m 0,-1.21875 q 1.82031,0 2.78125,1.17969 0.96875,1.17969 0.96875,3.41406 0,2.24219 -0.96094,3.42188 -0.96093,1.17187 -2.78906,1.17187 -1.82031,0 -2.78125,-1.17187 -0.96094,-1.17969 -0.96094,-3.42188 0,-2.23437 0.96094,-3.41406 0.96094,-1.17969 2.78125,-1.17969 z m 13.03125,3.53906 V 198 h -1.44531 v -5.42188 q 0,-1.17968 -0.41406,-1.73437 -0.41407,-0.55469 -1.29688,-0.55469 -1.00781,0 -1.55469,0.71875 -0.53906,0.71094 -0.53906,2.04688 V 198 h -1.4375 v -8.75 h 1.4375 v 1.3125 q 0.38281,-0.75 1.03906,-1.13281 0.65625,-0.39063 1.55469,-0.39063 1.33594,0 1.99219,0.88281 0.66406,0.875 0.66406,2.65625 z m 4.20313,0.39844 h 4.07031 v 1.28125 h -4.07031 z m 12.33593,0.625 h -0.47656 q -1.25781,0 -1.89844,0.44531 -0.63281,0.4375 -0.63281,1.3125 0,0.78907 0.47656,1.22657 0.47657,0.4375 1.32032,0.4375 1.1875,0 1.86718,-0.82032 0.67969,-0.82812 0.6875,-2.28125 v -0.32031 z m 2.78907,-0.59375 V 198 h -1.44532 v -1.29688 q -0.46093,0.78125 -1.16406,1.15625 -0.69531,0.36719 -1.69531,0.36719 -1.33594,0 -2.13281,-0.75 -0.79688,-0.75781 -0.79688,-2.02344 0,-1.46093 0.97656,-2.21875 0.98438,-0.75781 2.88282,-0.75781 h 1.92968 V 192.25 q -0.008,-1.04688 -0.53125,-1.51563 -0.52343,-0.47656 -1.67187,-0.47656 -0.73438,0 -1.48438,0.21094 -0.75,0.21094 -1.46093,0.61719 v -1.4375 q 0.79687,-0.30469 1.52343,-0.45313 0.73438,-0.15625 1.42188,-0.15625 1.08594,0 1.85156,0.32031 0.77344,0.32032 1.25,0.96094 0.29688,0.39063 0.42188,0.96875 0.125,0.57031 0.125,1.71875 z m 9.66406,-7.16406 v 1.19531 h -1.63281 q -0.77344,0 -1.07813,0.32031 -0.29687,0.3125 -0.29687,1.11719 V 189.25 h 3.00781 v 1.11719 h -3.00781 V 198 h -1.4375 v -7.63281 H 221.8125 V 189.25 h 2.33594 v -0.60938 q 0,-1.4375 0.65625,-2.11718 0.66406,-0.67969 2.0625,-0.67969 z m 9.63281,0 v 1.19531 h -1.63281 q -0.77344,0 -1.07813,0.32031 -0.29687,0.3125 -0.29687,1.11719 V 189.25 h 3.00781 v 1.11719 h -3.00781 V 198 h -1.4375 v -7.63281 h -2.33594 V 189.25 h 2.33594 v -0.60938 q 0,-1.4375 0.65625,-2.11718 0.66406,-0.67969 2.0625,-0.67969 z m 3.32813,3.40625 h 3.67968 v 7.63281 h 2.85157 V 198 h -7.14063 v -1.11719 h 2.85156 v -6.51562 h -2.24218 z m 2.24218,-3.40625 h 1.4375 v 1.82031 h -1.4375 z m 10.38282,8.98437 q 0,0.96875 0.35156,1.46094 0.35937,0.49219 1.05469,0.49219 h 1.67968 V 198 h -1.82031 q -1.28906,0 -2,-0.82813 -0.70312,-0.82812 -0.70312,-2.34375 v -7.94531 h -2.30469 v -1.125 h 3.74219 z M 260.82031,189.25 H 264.5 v 7.63281 h 2.85156 V 198 h -7.14062 v -1.11719 h 2.85156 v -6.51562 h -2.24219 z m 2.24219,-3.40625 H 264.5 v 1.82031 h -1.4375 z m 10.875,7.75781 h -0.47656 q -1.25782,0 -1.89844,0.44531 -0.63281,0.4375 -0.63281,1.3125 0,0.78907 0.47656,1.22657 0.47656,0.4375 1.32031,0.4375 1.1875,0 1.86719,-0.82032 0.67969,-0.82812 0.6875,-2.28125 v -0.32031 z m 2.78906,-0.59375 V 198 h -1.44531 v -1.29688 q -0.46094,0.78125 -1.16406,1.15625 -0.69532,0.36719 -1.69532,0.36719 -1.33593,0 -2.13281,-0.75 -0.79687,-0.75781 -0.79687,-2.02344 0,-1.46093 0.97656,-2.21875 0.98437,-0.75781 2.88281,-0.75781 h 1.92969 V 192.25 q -0.008,-1.04688 -0.53125,-1.51563 -0.52344,-0.47656 -1.67188,-0.47656 -0.73437,0 -1.48437,0.21094 -0.75,0.21094 -1.46094,0.61719 v -1.4375 q 0.79688,-0.30469 1.52344,-0.45313 0.73437,-0.15625 1.42187,-0.15625 1.08594,0 1.85157,0.32031 0.77343,0.32032 1.25,0.96094 0.29687,0.39063 0.42187,0.96875 0.125,0.57031 0.125,1.71875 z m 6.15625,-6.24219 V 189.25 h 3.26563 v 1.11719 h -3.26563 v 4.75 q 0,0.96875 0.36719,1.35156 0.36719,0.38281 1.28125,0.38281 h 1.61719 V 198 h -1.75782 q -1.61718,0 -2.28125,-0.64844 -0.66406,-0.64844 -0.66406,-2.23437 v -4.75 h -2.33594 V 189.25 h 2.33594 v -2.48438 z m 13.52344,6.5 v 0.70313 h -6.22656 v 0.0469 q 0,1.42969 0.74218,2.21094 0.75,0.78125 2.10938,0.78125 0.6875,0 1.4375,-0.21875 0.75,-0.21875 1.60156,-0.66406 v 1.42969 q -0.82031,0.33593 -1.58594,0.5 -0.75781,0.17187 -1.46875,0.17187 -2.03906,0 -3.1875,-1.21875 -1.14843,-1.22656 -1.14843,-3.375 0,-2.09375 1.125,-3.34375 1.125,-1.25 3,-1.25 1.67187,0 2.63281,1.13281 0.96875,1.13282 0.96875,3.09375 z m -1.4375,-0.42187 q -0.0312,-1.26563 -0.60156,-1.92188 -0.5625,-0.66406 -1.625,-0.66406 -1.03907,0 -1.71094,0.6875 -0.67188,0.6875 -0.79688,1.90625 z m 9.08594,-2.47656 v -4.52344 h 1.4375 V 198 h -1.4375 v -1.10156 q -0.35938,0.64843 -0.96094,0.99218 -0.59375,0.33594 -1.375,0.33594 -1.58594,0 -2.5,-1.22656 -0.90625,-1.23438 -0.90625,-3.39844 0,-2.13281 0.91406,-3.34375 0.91406,-1.21875 2.49219,-1.21875 0.78906,0 1.39062,0.34375 0.60157,0.33594 0.94532,0.98438 z m -4.22657,3.26562 q 0,1.67188 0.53125,2.52344 0.53125,0.85156 1.57032,0.85156 1.03906,0 1.57812,-0.85937 0.54688,-0.85938 0.54688,-2.51563 0,-1.66406 -0.54688,-2.51562 -0.53906,-0.85938 -1.57812,-0.85938 -1.03907,0 -1.57032,0.85156 -0.53125,0.85157 -0.53125,2.52344 z m 25.09375,-7.78906 v 1.19531 h -1.63281 q -0.77344,0 -1.07812,0.32031 -0.29688,0.3125 -0.29688,1.11719 V 189.25 h 3.00781 v 1.11719 h -3.00781 V 198 h -1.4375 v -7.63281 h -2.33594 V 189.25 h 2.33594 v -0.60938 q 0,-1.4375 0.65625,-2.11718 0.66406,-0.67969 2.0625,-0.67969 z m 6.14063,4.41406 q -1.09375,0 -1.65625,0.85156 -0.5625,0.85157 -0.5625,2.52344 0,1.66406 0.5625,2.52344 0.5625,0.85156 1.65625,0.85156 1.10156,0 1.66406,-0.85156 0.5625,-0.85938 0.5625,-2.52344 0,-1.67187 -0.5625,-2.52344 -0.5625,-0.85156 -1.66406,-0.85156 z m 0,-1.21875 q 1.82031,0 2.78125,1.17969 0.96875,1.17969 0.96875,3.41406 0,2.24219 -0.96094,3.42188 -0.96094,1.17187 -2.78906,1.17187 -1.82031,0 -2.78125,-1.17187 -0.96094,-1.17969 -0.96094,-3.42188 0,-2.23437 0.96094,-3.41406 0.96094,-1.17969 2.78125,-1.17969 z m 13.84375,2.01563 q -0.46094,-0.35938 -0.9375,-0.52344 -0.47656,-0.16406 -1.04688,-0.16406 -1.34375,0 -2.05468,0.84375 -0.71094,0.84375 -0.71094,2.4375 V 198 h -1.44531 v -8.75 h 1.44531 v 1.71094 q 0.35937,-0.92969 1.10156,-1.42188 0.75,-0.5 1.77344,-0.5 0.53125,0 0.99219,0.13281 0.46093,0.13282 0.88281,0.41407 z m 2.45312,-5.21094 h 1.48438 v 7.03906 l 3.77344,-3.63281 h 1.75 l -3.44532,3.29687 3.98438,5.45313 h -1.75781 l -3.23438,-4.51563 -1.07031,1.00782 V 198 h -1.48438 z m 22.23438,4.41406 q -1.09375,0 -1.65625,0.85156 -0.5625,0.85157 -0.5625,2.52344 0,1.66406 0.5625,2.52344 0.5625,0.85156 1.65625,0.85156 1.10156,0 1.66406,-0.85156 0.5625,-0.85938 0.5625,-2.52344 0,-1.67187 -0.5625,-2.52344 -0.5625,-0.85156 -1.66406,-0.85156 z m 0,-1.21875 q 1.82031,0 2.78125,1.17969 0.96875,1.17969 0.96875,3.41406 0,2.24219 -0.96094,3.42188 -0.96094,1.17187 -2.78906,1.17187 -1.82031,0 -2.78125,-1.17187 -0.96094,-1.17969 -0.96094,-3.42188 0,-2.23437 0.96094,-3.41406 0.96094,-1.17969 2.78125,-1.17969 z m 13.125,-3.19531 v 1.19531 h -1.63281 q -0.77344,0 -1.07813,0.32031 -0.29687,0.3125 -0.29687,1.11719 V 189.25 h 3.00781 v 1.11719 h -3.00781 V 198 h -1.4375 v -7.63281 H 375.9375 V 189.25 h 2.33594 v -0.60938 q 0,-1.4375 0.65625,-2.11718 0.66406,-0.67969 2.0625,-0.67969 z m 18.03125,6.33594 q 0,-2.57032 -0.53125,-3.67188 -0.52344,-1.10156 -1.72656,-1.10156 -1.19532,0 -1.72657,1.10156 -0.52343,1.10156 -0.52343,3.67188 0,2.5625 0.52343,3.66406 0.53125,1.10156 1.72657,1.10156 1.20312,0 1.72656,-1.09375 Q 400.75,194.75 400.75,192.17969 Z m 1.64844,0 q 0,3.04687 -0.96875,4.54687 -0.96094,1.5 -2.9375,1.5 -1.97657,0 -2.9375,-1.49219 -0.96094,-1.49218 -0.96094,-4.55468 0,-3.05469 0.96094,-4.55469 0.96875,-1.5 2.9375,-1.5 1.97656,0 2.9375,1.5 0.96875,1.5 0.96875,4.55469 z m 2.4375,2.50781 v -5.42188 h 1.4375 v 5.42188 q 0,1.17969 0.41406,1.73437 0.42187,0.55469 1.29687,0.55469 1.01563,0 1.55469,-0.71094 0.53906,-0.71875 0.53906,-2.05468 v -4.94532 h 1.44532 V 198 h -1.44532 v -1.3125 q -0.38281,0.75781 -1.04687,1.14844 -0.65625,0.39062 -1.53906,0.39062 -1.34375,0 -2,-0.875 -0.65625,-0.88281 -0.65625,-2.66406 z m 12.90625,-7.92188 V 189.25 h 3.26562 v 1.11719 h -3.26562 v 4.75 q 0,0.96875 0.36718,1.35156 0.36719,0.38281 1.28125,0.38281 h 1.61719 V 198 H 419.25 q -1.61719,0 -2.28125,-0.64844 -0.66406,-0.64844 -0.66406,-2.23437 v -4.75 h -2.33594 V 189.25 h 2.33594 v -2.48438 z m 9.82812,8.0625 q 0,0.96875 0.35156,1.46094 0.35938,0.49219 1.05469,0.49219 h 1.67969 V 198 h -1.82031 q -1.28907,0 -2,-0.82813 -0.70313,-0.82812 -0.70313,-2.34375 v -7.94531 h -2.30469 v -1.125 h 3.74219 z m 6.64063,-5.57812 h 3.67968 v 7.63281 h 2.85157 V 198 h -7.14063 v -1.11719 h 2.85156 v -6.51562 h -2.24218 z m 2.24218,-3.40625 h 1.4375 v 1.82031 h -1.4375 z m 13.60157,6.73437 V 198 h -1.44532 v -5.42188 q 0,-1.17968 -0.41406,-1.73437 -0.41406,-0.55469 -1.29687,-0.55469 -1.00782,0 -1.55469,0.71875 -0.53906,0.71094 -0.53906,2.04688 V 198 h -1.4375 v -8.75 h 1.4375 v 1.3125 q 0.38281,-0.75 1.03906,-1.13281 0.65625,-0.39063 1.55469,-0.39063 1.33593,0 1.99218,0.88281 0.66407,0.875 0.66407,2.65625 z m 10.10937,0.6875 v 0.70313 h -6.22656 v 0.0469 q 0,1.42969 0.74219,2.21094 0.75,0.78125 2.10937,0.78125 0.6875,0 1.4375,-0.21875 0.75,-0.21875 1.60156,-0.66406 v 1.42969 q -0.82031,0.33593 -1.58593,0.5 -0.75782,0.17187 -1.46875,0.17187 -2.03907,0 -3.1875,-1.21875 -1.14844,-1.22656 -1.14844,-3.375 0,-2.09375 1.125,-3.34375 1.125,-1.25 3,-1.25 1.67187,0 2.63281,1.13281 0.96875,1.13282 0.96875,3.09375 z m -1.4375,-0.42187 q -0.0312,-1.26563 -0.60156,-1.92188 -0.5625,-0.66406 -1.625,-0.66406 -1.03906,0 -1.71094,0.6875 -0.67187,0.6875 -0.79687,1.90625 z"
       id="path22" />
    <path
       style="fill:#34c759"
       d="m 470.58594,202 v -19.00781 h 9.94531 V 202 Z"
       id="path23" />
  </g>
</svg>
