<svg xmlns="http://www.w3.org/2000/svg" xmlns:xlink="http://www.w3.org/1999/xlink" version="1.1" x="0px" y="0px" viewBox="0 0 100 125" style="enable-background:new 0 0 100 100;" xml:space="preserve"><g><path d="M18.7,27.5h62.7c2.5,0,4.5-2,4.5-4.5s-2-4.5-4.5-4.5H18.7c-2.5,0-4.5,2-4.5,4.5S16.2,27.5,18.7,27.5z"/><path d="M81.4,45.5H18.7c-2.5,0-4.5,2-4.5,4.5s2,4.5,4.5,4.5h62.7c2.5,0,4.5-2,4.5-4.5S83.9,45.5,81.4,45.5z"/><path d="M81.4,72.5H18.7c-2.5,0-4.5,2-4.5,4.5s2,4.5,4.5,4.5h62.7c2.5,0,4.5-2,4.5-4.5S83.9,72.5,81.4,72.5z"/></g></svg>
