<svg xmlns:dc="http://purl.org/dc/elements/1.1/" xmlns:cc="http://creativecommons.org/ns#" xmlns:rdf="http://www.w3.org/1999/02/22-rdf-syntax-ns#" xmlns:svg="http://www.w3.org/2000/svg" xmlns="http://www.w3.org/2000/svg" xmlns:sodipodi="http://sodipodi.sourceforge.net/DTD/sodipodi-0.dtd" xmlns:inkscape="http://www.inkscape.org/namespaces/inkscape" version="1.1" x="0px" y="0px" viewBox="0 0 100 125"><g transform="translate(0,-952.36218)"><path style="color:#000000;enable-background:accumulate;" d="M 17 41 C 12.029437 41 8 45.029437 8 50 C 8 54.970563 12.029437 59 17 59 C 21.970563 59 26 54.970563 26 50 C 26 45.029437 21.970563 41 17 41 z M 50 41 C 45.029437 41 41 45.029437 41 50 C 41 54.970563 45.029437 59 50 59 C 54.970563 59 59 54.970563 59 50 C 59 45.029437 54.970563 41 50 41 z M 83 41 C 78.029437 41 74 45.029437 74 50 C 74 54.970563 78.029437 59 83 59 C 87.970563 59 92 54.970563 92 50 C 92 45.029437 87.970563 41 83 41 z " transform="translate(0,952.36218)" fill="#000000" stroke="none" marker="none" visibility="visible" display="inline" overflow="visible"/></g></svg>
